<?xml version="1.0" encoding="utf-8"?>
<!-- Generator: Adobe Illustrator 27.6.1, SVG Export Plug-In . SVG Version: 6.00 Build 0)  -->
<svg version="1.1" xmlns="http://www.w3.org/2000/svg" xmlns:xlink="http://www.w3.org/1999/xlink" x="0px" y="0px"
	 viewBox="0 0 1080 1438.92" style="enable-background:new 0 0 1080 1438.92;" xml:space="preserve">
<g id="Layer_1">
	<path d="M237.21,39.73c8.17-3.48,11.48-0.87,12.14,8.9C244.17,47.03,243.61,39.36,237.21,39.73z"/>
	<g>
		<path d="M780.78,740.63c-1.46,6.26,0.89,11.05,3.66,18.29c6.13,16.02,7.78,33.42,12.19,49.99c8.63,32.41-23.27,96.12-40.24,119.5
			c-61.25,84.4-299.67,155.45-450.32,20.2c-115.71-103.9-136.96-292.1-50.7-416.87c70.42-101.87,219.6-167.49,334.54-101.92
			c0.38,0.21,2.67,1.57,5.36,1.07c2.29-0.42,4.22-2.08,5.85-4.57l-1.02,65.95c-14.6-28.36-78.48-42.62-125.53-40.67
			c-106.54,4.41-173.38,93.86-176.18,97.72c-81.46,112.57-25.54,250.37-18.65,266.58c9.59,22.57,41.96,96.07,125.44,140.12
			c11.11,5.87,97.24,49.84,201.23,21.16c28.09-7.74,103.19-28.45,135.35-93.89c23.08-46.96,19.29-107.26,3.87-112.79
			c-8.8-3.16-19.07,12.34-27.04,7.93c-7.65-4.24-1.59-20.42-2.44-53.65c-0.79-30.91-6.64-40.99,0-46.34
			c5.45-4.38,12.67-0.26,52.44,14.64c29.19,10.93,39.96,14.2,40.05,20.12C808.78,722.1,784.59,724.22,780.78,740.63z"/>
		<path d="M935.52,470.98c-12.1-24.29-28.38-45.64-47.83-64.18c-13.2-12.57-13.9-11.72-24.9,2.08c-2.02,2.53-4.49,4.77-7.02,6.8
			c-10.14,8.11-20.36,16.05-30.08,24.76c-32.71,29.31-66.06,57.88-99.32,86.55c-27.77,23.94-56.06,47.28-83.61,71.5
			c-45.95,40.4-97.27,74.16-135.04,124.59c-22.8,30.44-46.96,60.57-73.47,88.32c-13.25,13.86-24.61,29.55-40.06,42.58
			c7.48,6.86,13.11,8.06,21.86,2.27c9.36-6.19,19.53-11.63,29.53-16.97c27.47-14.66,55.12-29.11,83.47-41.9
			c10.73-4.84,19.68-12.08,29.99-17.33c16.23-8.27,36.32-6.19,48.87-25.71c10.24-15.92,27.37-27.96,43.05-39.49
			c24.82-18.24,47.89-38.52,71.41-58.3c45.9-38.61,91.78-77.25,137.13-116.51c9.73-8.43,21.27-14.77,29.96-23.63
			c11.2-11.4,23.1-21.98,34.48-33.15c1.62-1.59,2.89-3.46,6.13-2.69C941.61,483.33,938.13,476.22,935.52,470.98z M558.16,756.29
			c-4.37,5.8-8.04,11.55-9.59,19.39c-1.51,7.62-11.63,7.48-17.66,11.13c-11.78,7.13-24.63,12.45-37.03,18.51
			c-10.26,5.02-15.65,3.4-17.85-8.04c-1.66-8.61-7.82-0.89-10.13-4.66c11.76-24.14,29.36-42.98,45.4-62.98
			c3-3.75,5.63-8.9,10.78-9.39c6.02-0.56,14.06-1.78,17.8,1.4c4.51,3.83-3.79,8.61-4.62,13.65c-0.62,3.74-5.54,6.98-1.6,11.25
			c3.29,3.56,7.26,2.8,11.36,1.46c3.14-1.03,6.3-0.94,9.63,0C559.62,749.4,562.12,751.03,558.16,756.29z M858.28,521.4
			c-17.35,11.18-34.06,22.96-48.58,38.19c-19.01,19.94-39.74,38.21-59.82,57.11c-36.49,34.36-72.77,68.89-112.55,99.56
			c-13.11,10.1-26.6,20.18-38.29,32.36c-6.24,6.51-15.02,9.27-25.09,7.61c1.68-5.88,5.93-9.32,8.44-13.79
			c2.13-3.8,4.22-8.25-0.8-12.14c-3.97-3.09-7.61-4.66-12.05-0.97c-1.85,1.54-4.04,2.74-6.24,3.72c-4.15,1.85-8.97,4.03-12.42-0.3
			c-4.16-5.22,2.53-6.92,4.61-9.53c9.52-11.95,10.19-12.61-2.44-19.57c-7.85-4.32-6.11-6.81-1.72-12.14
			c14.48-17.55,28.47-35.71,51.37-42.54c6.03-1.8,6.37-8.07,11.3-10.63c19.13-9.94,34.55-25.91,54.66-34.51
			c4.5-1.93,8.54-6.66,11.13-11.09c5.41-9.21,14.6-12.72,22.81-17.92c2.98-1.89,7.35-4.91,7.44-7.55
			c0.47-13.59,12.02-13.46,19.99-17.31c4.63-2.23,9.03-4.45,11.13-9.07c4.99-10.95,15.88-15.7,23.43-23.89
			c6.86-7.45,12.08-16.65,18.53-23.98c9.78-11.11,24.05-17.97,34-29.64c3.03-3.56,7.02-2.75,9.46,0.76
			c10.04,14.42,26.09,23.15,34.88,38.98C865.96,511.23,866.51,516.1,858.28,521.4z M841.68,447.81
			c12.37,7.88,21.63,18.28,24.6,33.44C854.75,472.78,848.56,460.08,841.68,447.81z M895.92,490.76c-3.09,0.53-3.93-1.97-5.58-3.76
			c-12.39-13.43-19.92-30.64-33.2-43.39c-3.8-3.65-4-8.04,0.37-11.79c6.45-5.54,12.88-11.11,19.46-16.48c2.43-1.98,5-0.43,6.49,1.45
			c11.05,14,25.18,25.6,32.61,42.44c0.82,1.85,1.22,3.9,1.63,5.27C917.46,469.09,899.54,490.15,895.92,490.76z"/>
		<path d="M846.59,512.24c-16.25,11.68-29.21,24.25-41.16,38.25c-7.72,9.05-17.3,16.79-27.04,23.68
			c-34.44,24.34-64.39,54.07-96.48,81.22c-26.15,22.13-52.26,44.3-78.3,66.55c-2.28,1.95-4.78,4.64-7.17,2.09
			c-3.12-3.34,0.37-6.2,2.78-8.05c32.31-24.8,61.6-53.27,92.84-79.38c26.4-22.06,52.86-44.49,77.54-69
			c13.47-13.38,28.52-26.65,44.63-37.81c6.35-4.39,11.98-9.92,17.56-15.33C835.95,510.43,839.87,507.92,846.59,512.24z"/>
		<path d="M820.28,487.59c-10.45,9.36-20.96,18.66-31.35,28.09c-39.21,35.58-80.41,68.82-119.16,105
			c-29.15,27.21-60.65,51.84-91.08,77.65c-2.11,1.79-4.32,5.32-6.95,2.75c-3.34-3.27,0.33-6.12,2.64-8.11
			c16.35-14.03,33.02-27.68,49.27-41.83c36.64-31.92,72.15-65.26,109.95-95.7c28.49-22.94,54.48-48.97,84.04-70.55
			C818.52,485.79,819.4,486.69,820.28,487.59z"/>
		<path d="M760.97,553.38c-4.94,14.67-17.23,17.39-25.36,26.38C735.97,568.11,741.12,562.81,760.97,553.38z"/>
		<path d="M704.34,603.15c4.71-10.58,14.1-16.06,22.34-22.71c0.45-0.36,2.55,0.44,3,1.21c0.91,1.56,0.1,3.11-1.35,4.16
			C720.34,591.6,712.33,597.37,704.34,603.15z"/>
		<path d="M797.81,1039.09L797.81,1039.09z"/>
		<path d="M691.68,535.2c0.08,4.74-3.67,8.67-8.41,8.81l-23.56,0.73c-4.92,0.15-8.97-3.81-8.94-8.73l0.76-133.64
			c0.02-4.43,3.38-8.13,7.79-8.58l20.54-2.11c5.05-0.52,9.47,3.4,9.56,8.48L691.68,535.2z"/>
		<path d="M638.92,402.99v0.67c-0.45,43.61-0.89,87.21-1.33,130.82c-0.06,5.22-4.47,9.34-9.68,9.02
			c-6.62-0.39-13.24-0.79-19.85-1.19c-4.88-0.29-8.66-4.37-8.59-9.26l0.63-40.78l1.02-65.95l0.37-23.57
			c0.08-4.98,4.14-8.99,9.13-8.99h19.17C634.87,393.76,638.97,397.91,638.92,402.99z"/>
		<path d="M633.67,409.02L633.67,409.02z"/>
	</g>
</g>
<g id="Layer_2">
</g>
</svg>
